<svg width="429" height="120" viewBox="0 0 429 120" fill="none" xmlns="http://www.w3.org/2000/svg">
<path d="M65 33.3101C65 49.0187 41.3039 85.6222 34.3789 95.9838C34.17 96.297 33.8897 96.5533 33.5623 96.7304C33.2348 96.9075 32.8702 97 32.5 97C32.1298 97 31.7652 96.9075 31.4377 96.7304C31.1103 96.5533 30.83 96.297 30.6211 95.9838C23.6961 85.6222 0 49.0187 0 33.3101C3.63286e-07 24.4757 3.42408 16.0032 9.51901 9.75631C15.6139 3.50945 23.8805 0 32.5 0C41.1195 0 49.386 3.50945 55.4809 9.75631C61.5759 16.0032 65 24.4757 65 33.3101Z" fill="#6C63FF"/>
<path d="M34 48C43.3888 48 51 40.3888 51 31C51 21.6112 43.3888 14 34 14C24.6112 14 17 21.6112 17 31C17 40.3888 24.6112 48 34 48Z" fill="white"/>
<path d="M33 120C36.866 120 40 116.642 40 112.5C40 108.358 36.866 105 33 105C29.134 105 26 108.358 26 112.5C26 116.642 29.134 120 33 120Z" fill="#6C63FF"/>
<path d="M116.07 96.5312C114.172 98.8047 111.488 100.574 108.02 101.84C104.551 103.082 100.707 103.703 96.4883 103.703C92.0586 103.703 88.168 102.742 84.8164 100.82C81.4883 98.875 78.9102 96.0625 77.082 92.3828C75.2773 88.7031 74.3516 84.3789 74.3047 79.4102V75.9297C74.3047 70.8203 75.1602 66.4023 76.8711 62.6758C78.6055 58.9258 81.0898 56.0664 84.3242 54.0977C87.582 52.1055 91.3906 51.1094 95.75 51.1094C101.82 51.1094 106.566 52.5625 109.988 55.4688C113.41 58.3516 115.438 62.5586 116.07 68.0898H105.805C105.336 65.1602 104.293 63.0156 102.676 61.6562C101.082 60.2969 98.8789 59.6172 96.0664 59.6172C92.4805 59.6172 89.75 60.9648 87.875 63.6602C86 66.3555 85.0508 70.3633 85.0273 75.6836V78.9531C85.0273 84.3203 86.0469 88.375 88.0859 91.1172C90.125 93.8594 93.1133 95.2305 97.0508 95.2305C101.012 95.2305 103.836 94.3867 105.523 92.6992V83.875H95.9258V76.1055H116.07V96.5312ZM141.488 103.703C135.91 103.703 131.363 101.992 127.848 98.5703C124.355 95.1484 122.609 90.5898 122.609 84.8945V83.9102C122.609 80.0898 123.348 76.6797 124.824 73.6797C126.301 70.6562 128.387 68.3359 131.082 66.7188C133.801 65.0781 136.895 64.2578 140.363 64.2578C145.566 64.2578 149.656 65.8984 152.633 69.1797C155.633 72.4609 157.133 77.1133 157.133 83.1367V87.2852H132.91C133.238 89.7695 134.223 91.7617 135.863 93.2617C137.527 94.7617 139.625 95.5117 142.156 95.5117C146.07 95.5117 149.129 94.0938 151.332 91.2578L156.324 96.8477C154.801 99.0039 152.738 100.691 150.137 101.91C147.535 103.105 144.652 103.703 141.488 103.703ZM140.328 72.4844C138.312 72.4844 136.672 73.1641 135.406 74.5234C134.164 75.8828 133.367 77.8281 133.016 80.3594H147.148V79.5508C147.102 77.3008 146.492 75.5664 145.32 74.3477C144.148 73.1055 142.484 72.4844 140.328 72.4844ZM161.352 83.6289C161.352 79.8555 162.078 76.4922 163.531 73.5391C164.984 70.5859 167.07 68.3008 169.789 66.6836C172.531 65.0664 175.707 64.2578 179.316 64.2578C184.449 64.2578 188.633 65.8281 191.867 68.9688C195.125 72.1094 196.941 76.375 197.316 81.7656L197.387 84.3672C197.387 90.2031 195.758 94.8906 192.5 98.4297C189.242 101.945 184.871 103.703 179.387 103.703C173.902 103.703 169.52 101.945 166.238 98.4297C162.98 94.9141 161.352 90.1328 161.352 84.0859V83.6289ZM171.512 84.3672C171.512 87.9766 172.191 90.7422 173.551 92.6641C174.91 94.5625 176.855 95.5117 179.387 95.5117C181.848 95.5117 183.77 94.5742 185.152 92.6992C186.535 90.8008 187.227 87.7773 187.227 83.6289C187.227 80.0898 186.535 77.3477 185.152 75.4023C183.77 73.457 181.824 72.4844 179.316 72.4844C176.832 72.4844 174.91 73.457 173.551 75.4023C172.191 77.3242 171.512 80.3125 171.512 84.3672ZM237.887 84.332C237.887 90.1914 236.551 94.8906 233.879 98.4297C231.23 101.945 227.645 103.703 223.121 103.703C219.277 103.703 216.172 102.367 213.805 99.6953V117.625H203.645V64.9609H213.066L213.418 68.6875C215.879 65.7344 219.09 64.2578 223.051 64.2578C227.738 64.2578 231.383 65.9922 233.984 69.4609C236.586 72.9297 237.887 77.7109 237.887 83.8047V84.332ZM227.727 83.5938C227.727 80.0547 227.094 77.3242 225.828 75.4023C224.586 73.4805 222.77 72.5195 220.379 72.5195C217.191 72.5195 215 73.7383 213.805 76.1758V91.75C215.047 94.2578 217.262 95.5117 220.449 95.5117C225.301 95.5117 227.727 91.5391 227.727 83.5938ZM254.938 103H244.742V64.9609H254.938V103ZM244.145 55.1172C244.145 53.5938 244.648 52.3398 245.656 51.3555C246.688 50.3711 248.082 49.8789 249.84 49.8789C251.574 49.8789 252.957 50.3711 253.988 51.3555C255.02 52.3398 255.535 53.5938 255.535 55.1172C255.535 56.6641 255.008 57.9297 253.953 58.9141C252.922 59.8984 251.551 60.3906 249.84 60.3906C248.129 60.3906 246.746 59.8984 245.691 58.9141C244.66 57.9297 244.145 56.6641 244.145 55.1172ZM272.691 64.9609L273.008 69.3555C275.727 65.957 279.371 64.2578 283.941 64.2578C287.973 64.2578 290.973 65.4414 292.941 67.8086C294.91 70.1758 295.918 73.7148 295.965 78.4258V103H285.805V78.6719C285.805 76.5156 285.336 74.957 284.398 73.9961C283.461 73.0117 281.902 72.5195 279.723 72.5195C276.863 72.5195 274.719 73.7383 273.289 76.1758V103H263.129V64.9609H272.691ZM346.344 78.5664C346.344 83.3477 345.57 87.5078 344.023 91.0469C342.477 94.5625 340.332 97.3867 337.59 99.5195L346.098 106.199L339.383 112.141L328.484 103.387C327.242 103.598 325.953 103.703 324.617 103.703C320.375 103.703 316.59 102.684 313.262 100.645C309.934 98.6055 307.355 95.6992 305.527 91.9258C303.699 88.1289 302.773 83.7695 302.75 78.8477V76.3164C302.75 71.2773 303.652 66.8477 305.457 63.0273C307.285 59.1836 309.852 56.2422 313.156 54.2031C316.484 52.1406 320.281 51.1094 324.547 51.1094C328.812 51.1094 332.598 52.1406 335.902 54.2031C339.23 56.2422 341.797 59.1836 343.602 63.0273C345.43 66.8477 346.344 71.2656 346.344 76.2812V78.5664ZM335.656 76.2461C335.656 70.8789 334.695 66.8008 332.773 64.0117C330.852 61.2227 328.109 59.8281 324.547 59.8281C321.008 59.8281 318.277 61.2109 316.355 63.9766C314.434 66.7188 313.461 70.75 313.438 76.0703V78.5664C313.438 83.793 314.398 87.8477 316.32 90.7305C318.242 93.6133 321.008 95.0547 324.617 95.0547C328.156 95.0547 330.875 93.6719 332.773 90.9062C334.672 88.1172 335.633 84.0625 335.656 78.7422V76.2461ZM373.027 84.2617H364.625V103H354.078V51.8125H373.098C379.145 51.8125 383.809 53.1602 387.09 55.8555C390.371 58.5508 392.012 62.3594 392.012 67.2812C392.012 70.7734 391.25 73.6914 389.727 76.0352C388.227 78.3555 385.941 80.207 382.871 81.5898L393.945 102.508V103H382.625L373.027 84.2617ZM364.625 75.7188H373.133C375.781 75.7188 377.832 75.0508 379.285 73.7148C380.738 72.3555 381.465 70.4922 381.465 68.125C381.465 65.7109 380.773 63.8125 379.391 62.4297C378.031 61.0469 375.934 60.3555 373.098 60.3555H364.625V75.7188Z" fill="#4E4E4E"/>
</svg>
